<svg id="svg" version="1.1" xmlns="http://www.w3.org/2000/svg" xmlns:xlink="http://www.w3.org/1999/xlink" width="400" height="400" viewBox="0, 0, 400,400"><g id="svgg"><path id="path0" d="M109.800 128.386 C 108.480 128.558,106.950 128.880,106.400 129.100 C 105.850 129.321,104.230 129.636,102.800 129.800 C 101.370 129.964,99.750 130.279,99.200 130.500 C 98.650 130.720,97.210 131.139,96.000 131.431 C 59.555 140.215,29.133 170.029,18.277 207.600 C 16.389 214.134,15.749 217.444,14.757 225.800 C 13.712 234.596,14.745 253.764,16.613 260.235 C 16.936 261.354,17.200 262.671,17.200 263.161 C 17.200 263.651,17.538 264.895,17.952 265.926 C 18.365 266.957,19.563 270.458,20.613 273.707 C 22.348 279.072,26.890 289.050,29.202 292.573 C 41.323 311.046,50.947 320.761,67.000 330.729 C 77.871 337.480,94.809 343.738,106.200 345.212 C 107.960 345.440,110.660 345.795,112.200 346.001 C 115.912 346.497,132.708 346.489,136.000 345.989 C 137.430 345.772,140.040 345.412,141.800 345.190 C 143.560 344.968,145.619 344.586,146.375 344.340 C 147.132 344.095,148.752 343.663,149.975 343.382 C 151.199 343.100,153.100 342.577,154.200 342.219 C 155.300 341.861,157.190 341.268,158.400 340.901 C 164.135 339.162,174.500 334.424,180.000 331.027 C 186.209 327.192,188.164 325.814,192.760 322.027 C 200.467 315.678,210.900 304.332,214.286 298.620 C 215.584 296.429,214.350 294.691,208.800 290.899 C 197.418 283.122,196.664 266.590,207.384 259.850 C 213.232 256.172,218.887 256.183,226.313 259.884 C 230.825 262.133,230.621 262.288,231.624 255.844 C 233.208 245.663,233.844 236.493,233.263 232.200 C 233.024 230.440,232.637 226.930,232.402 224.400 C 229.627 194.550,210.933 163.731,185.400 146.911 C 177.828 141.923,176.027 140.790,175.115 140.443 C 174.612 140.252,171.950 139.017,169.200 137.700 C 164.616 135.505,160.985 134.185,153.400 131.956 C 151.860 131.503,149.766 130.878,148.746 130.566 C 147.727 130.255,146.365 130.000,145.719 130.000 C 145.074 130.000,143.208 129.616,141.573 129.148 C 138.354 128.225,115.282 127.672,109.800 128.386 M106.925 216.173 C 112.831 217.303,116.873 220.373,118.327 224.831 C 119.103 227.213,119.169 228.388,119.233 241.000 C 119.270 248.480,119.489 256.011,119.718 257.735 C 120.347 262.468,117.965 263.040,116.932 258.404 C 116.239 255.289,115.955 255.206,113.523 257.400 C 102.827 267.048,85.497 262.855,85.420 250.600 C 85.361 241.172,93.216 236.400,108.794 236.400 C 116.994 236.400,116.607 236.668,116.582 231.002 C 116.546 222.932,111.862 218.400,103.557 218.400 C 97.029 218.400,89.600 222.907,89.600 226.869 C 89.600 228.090,88.071 229.357,87.335 228.746 C 84.228 226.167,91.780 217.774,98.400 216.448 C 99.610 216.206,100.960 215.937,101.400 215.850 C 102.945 215.546,103.956 215.605,106.925 216.173 M152.400 216.485 C 157.931 217.819,163.200 223.127,163.200 227.366 C 163.200 229.411,160.746 229.103,160.261 226.997 C 157.606 215.468,134.400 215.805,134.400 227.373 C 134.400 232.006,137.562 234.714,145.400 236.795 C 156.503 239.743,160.718 242.197,162.401 246.694 C 166.346 257.239,155.166 265.065,140.799 261.815 C 134.887 260.478,129.296 254.542,130.643 251.033 C 131.274 249.389,132.882 250.503,133.565 253.057 C 136.175 262.822,159.251 261.874,160.267 251.960 C 160.945 245.344,157.180 242.282,144.800 239.380 C 136.894 237.527,132.322 233.834,131.728 228.823 C 130.657 219.783,140.850 213.700,152.400 216.485 M68.984 217.804 C 71.857 219.282,73.093 220.368,75.464 223.499 C 76.822 225.292,78.003 229.795,78.107 233.579 C 78.237 238.295,79.436 237.987,60.914 237.994 L 45.628 238.000 45.160 238.876 C 44.841 239.471,44.773 240.909,44.948 243.366 C 45.927 257.170,60.636 264.620,71.884 257.010 C 75.084 254.845,77.341 255.867,74.700 258.284 C 66.236 266.032,50.905 262.999,44.703 252.350 C 40.943 245.895,41.073 231.536,44.944 225.793 C 45.535 224.917,46.384 223.629,46.831 222.931 C 50.956 216.484,61.618 214.017,68.984 217.804 M172.162 217.558 C 172.801 218.264,174.887 223.015,177.011 228.600 C 177.512 229.920,178.930 233.426,180.162 236.390 C 181.393 239.355,182.400 241.938,182.400 242.131 C 182.400 242.324,183.279 244.489,184.354 246.941 C 185.428 249.393,186.601 252.300,186.959 253.400 C 188.567 258.329,188.231 258.849,194.976 241.000 C 195.475 239.680,196.611 236.620,197.500 234.200 C 198.389 231.780,199.602 228.724,200.194 227.408 C 200.786 226.093,201.705 223.642,202.236 221.962 C 203.310 218.562,204.468 216.800,205.629 216.800 C 206.582 216.800,206.679 218.523,205.837 220.486 C 204.464 223.687,201.808 230.469,200.779 233.400 C 200.162 235.160,199.095 238.040,198.408 239.800 C 195.872 246.301,195.122 248.274,193.968 251.474 C 193.319 253.275,192.229 256.065,191.546 257.674 C 190.863 259.283,189.960 261.590,189.538 262.800 C 189.117 264.010,188.602 265.360,188.395 265.800 C 188.188 266.240,187.728 267.500,187.372 268.600 C 186.505 271.286,184.276 275.250,182.685 276.938 C 179.852 279.941,171.447 280.660,172.543 277.805 C 172.700 277.396,173.329 277.199,174.487 277.198 C 180.006 277.191,182.266 274.991,185.216 266.756 C 187.390 260.687,187.606 261.909,181.892 248.000 C 180.582 244.810,178.985 240.760,178.345 239.000 C 177.704 237.240,176.493 234.180,175.653 232.200 C 174.813 230.220,173.628 227.250,173.019 225.600 C 172.411 223.950,171.572 221.860,171.156 220.956 C 169.753 217.905,170.423 215.637,172.162 217.558 M55.230 219.566 C 50.337 221.619,44.915 229.224,45.278 233.527 C 45.447 235.520,45.399 235.514,60.518 235.560 L 73.636 235.600 74.636 234.600 C 75.728 233.508,75.721 232.735,74.583 228.592 C 72.367 220.527,63.167 216.237,55.230 219.566 M101.400 239.489 C 91.946 240.818,87.348 245.241,88.214 252.174 C 89.531 262.715,108.068 262.601,115.137 252.008 L 116.600 249.816 116.600 245.170 C 116.600 238.849,117.030 239.186,109.051 239.260 C 105.503 239.293,102.060 239.396,101.400 239.489 " stroke="none" fill="#1b8bc4" fill-rule="evenodd"></path><path id="path1" d="M315.200 259.174 C 308.227 260.581,307.755 263.160,313.653 267.627 C 323.632 275.186,323.114 274.683,323.172 276.871 C 323.277 280.863,319.240 280.191,313.200 275.212 C 311.330 273.670,308.810 271.652,307.600 270.727 C 306.390 269.802,304.950 268.644,304.400 268.153 C 303.812 267.629,302.050 266.936,300.120 266.471 L 296.839 265.680 293.651 266.540 C 286.435 268.487,282.628 273.945,286.722 276.476 C 287.510 276.962,289.012 278.089,290.062 278.980 C 291.111 279.871,293.605 281.860,295.603 283.400 C 303.989 289.862,306.400 292.279,306.400 294.223 C 306.400 296.967,303.154 297.619,300.463 295.416 C 299.878 294.937,297.870 293.375,296.000 291.944 C 291.518 288.516,288.163 285.904,284.665 283.121 C 277.300 277.262,274.867 277.121,269.956 282.270 C 265.745 286.685,264.959 289.786,267.483 292.015 C 271.136 295.241,271.918 295.886,274.200 297.559 C 275.520 298.527,277.244 299.877,278.031 300.559 C 278.819 301.242,281.308 303.324,283.564 305.188 C 288.099 308.933,288.400 309.318,288.400 311.364 C 288.400 314.172,285.371 314.742,282.670 312.441 C 281.972 311.846,278.880 309.399,275.800 307.003 C 272.720 304.607,268.074 300.926,265.475 298.823 C 262.876 296.720,259.706 294.190,258.431 293.200 C 251.132 287.534,248.147 285.248,246.364 283.961 C 245.268 283.169,243.882 282.073,243.285 281.523 C 242.356 280.669,235.530 275.483,229.235 270.849 C 228.226 270.106,226.860 268.993,226.200 268.375 C 221.805 264.260,214.881 263.411,210.856 266.494 C 204.762 271.161,205.487 278.999,212.514 284.409 C 213.661 285.293,216.220 287.274,218.200 288.813 C 223.379 292.836,227.505 295.985,229.430 297.384 C 231.100 298.597,236.738 302.903,241.361 306.496 C 242.702 307.538,244.790 309.108,246.000 309.983 C 248.780 311.995,257.400 318.626,265.410 324.916 C 267.032 326.190,269.165 327.810,270.150 328.516 C 271.136 329.222,273.350 330.888,275.071 332.217 C 276.792 333.546,279.325 335.494,280.700 336.545 C 284.487 339.442,284.256 340.195,279.678 339.870 C 277.742 339.732,275.357 339.322,274.378 338.958 C 272.926 338.417,270.949 338.292,263.600 338.272 L 254.600 338.249 251.893 339.578 C 247.749 341.613,244.021 345.797,243.206 349.326 C 242.366 352.965,242.875 353.633,246.809 354.053 C 248.413 354.224,250.552 354.632,251.563 354.958 C 252.573 355.285,254.390 355.733,255.600 355.955 C 256.810 356.176,260.140 356.891,263.000 357.543 C 265.860 358.195,269.386 358.993,270.835 359.316 C 272.285 359.639,273.815 360.084,274.235 360.305 C 274.656 360.526,275.810 360.835,276.800 360.992 C 277.790 361.149,278.960 361.501,279.400 361.776 C 279.840 362.050,280.931 362.390,281.824 362.530 C 283.731 362.830,294.147 366.226,295.600 367.021 C 296.150 367.322,298.580 368.403,301.000 369.423 C 303.420 370.443,307.020 372.051,309.000 372.996 C 310.980 373.942,313.050 374.847,313.600 375.007 C 314.150 375.167,314.799 375.457,315.043 375.651 C 315.588 376.084,319.083 377.333,323.600 378.707 C 327.928 380.024,348.480 380.553,351.944 379.437 C 352.965 379.108,354.700 378.662,355.800 378.446 C 357.935 378.028,362.008 376.648,365.600 375.127 C 371.211 372.751,378.541 366.416,382.176 360.800 C 383.244 359.150,384.420 357.350,384.789 356.800 C 386.687 353.975,390.508 344.437,391.199 340.800 C 391.388 339.810,391.838 338.190,392.200 337.200 C 394.204 331.720,392.913 319.164,389.750 313.379 C 387.304 308.905,377.052 298.324,368.800 291.756 C 366.930 290.267,364.417 288.162,363.216 287.077 C 362.015 285.993,360.461 284.722,359.763 284.253 C 359.066 283.784,357.415 282.500,356.094 281.400 C 352.756 278.620,338.686 268.132,332.842 264.069 C 326.594 259.725,320.648 258.075,315.200 259.174 " stroke="none" fill="#e49509" fill-rule="evenodd"></path><path id="path2" d="M0.000 200.000 L 0.000 400.000 200.000 400.000 L 400.000 400.000 400.000 200.000 L 400.000 0.000 200.000 0.000 L 0.000 0.000 0.000 200.000 M141.573 129.148 C 143.208 129.616,145.074 130.000,145.719 130.000 C 146.365 130.000,147.727 130.255,148.746 130.566 C 149.766 130.878,151.860 131.503,153.400 131.956 C 160.985 134.185,164.616 135.505,169.200 137.700 C 171.950 139.017,174.612 140.252,175.115 140.443 C 176.027 140.790,177.828 141.923,185.400 146.911 C 210.933 163.731,229.627 194.550,232.402 224.400 C 232.637 226.930,233.024 230.440,233.263 232.200 C 233.844 236.493,233.208 245.663,231.624 255.844 C 230.621 262.288,230.825 262.133,226.313 259.884 C 218.887 256.183,213.232 256.172,207.384 259.850 C 196.664 266.590,197.418 283.122,208.800 290.899 C 214.350 294.691,215.584 296.429,214.286 298.620 C 210.900 304.332,200.467 315.678,192.760 322.027 C 188.164 325.814,186.209 327.192,180.000 331.027 C 174.500 334.424,164.135 339.162,158.400 340.901 C 157.190 341.268,155.300 341.861,154.200 342.219 C 153.100 342.577,151.199 343.100,149.975 343.382 C 148.752 343.663,147.132 344.095,146.375 344.340 C 145.619 344.586,143.560 344.968,141.800 345.190 C 140.040 345.412,137.430 345.772,136.000 345.989 C 132.708 346.489,115.912 346.497,112.200 346.001 C 110.660 345.795,107.960 345.440,106.200 345.212 C 94.809 343.738,77.871 337.480,67.000 330.729 C 50.947 320.761,41.323 311.046,29.202 292.573 C 26.890 289.050,22.348 279.072,20.613 273.707 C 19.563 270.458,18.365 266.957,17.952 265.926 C 17.538 264.895,17.200 263.651,17.200 263.161 C 17.200 262.671,16.936 261.354,16.613 260.235 C 15.208 255.367,14.673 250.192,14.501 239.800 C 14.269 225.762,15.116 218.542,18.277 207.600 C 22.406 193.310,29.037 180.412,38.018 169.200 C 53.055 150.428,74.126 136.703,96.000 131.431 C 97.210 131.139,98.650 130.720,99.200 130.500 C 99.750 130.279,101.370 129.964,102.800 129.800 C 104.230 129.636,105.850 129.321,106.400 129.100 C 109.887 127.702,136.656 127.738,141.573 129.148 M101.400 215.850 C 100.960 215.937,99.610 216.206,98.400 216.448 C 91.780 217.774,84.228 226.167,87.335 228.746 C 88.071 229.357,89.600 228.090,89.600 226.869 C 89.600 222.907,97.029 218.400,103.557 218.400 C 111.862 218.400,116.546 222.932,116.582 231.002 C 116.607 236.668,116.994 236.400,108.794 236.400 C 93.216 236.400,85.361 241.172,85.420 250.600 C 85.497 262.855,102.827 267.048,113.523 257.400 C 115.955 255.206,116.239 255.289,116.932 258.404 C 117.965 263.040,120.347 262.468,119.718 257.735 C 119.489 256.011,119.270 248.480,119.233 241.000 C 119.152 224.997,118.919 223.652,115.682 220.506 C 112.242 217.162,105.650 215.013,101.400 215.850 M143.475 216.018 C 132.877 217.658,127.947 227.920,134.573 234.546 C 136.310 236.283,140.954 238.479,144.800 239.380 C 157.180 242.282,160.945 245.344,160.267 251.960 C 159.251 261.874,136.175 262.822,133.565 253.057 C 132.882 250.503,131.274 249.389,130.643 251.033 C 129.296 254.542,134.887 260.478,140.799 261.815 C 155.166 265.065,166.346 257.239,162.401 246.694 C 160.718 242.197,156.503 239.743,145.400 236.795 C 137.562 234.714,134.400 232.006,134.400 227.373 C 134.400 215.805,157.606 215.468,160.261 226.997 C 160.746 229.103,163.200 229.411,163.200 227.366 C 163.200 220.409,153.003 214.543,143.475 216.018 M55.348 216.767 C 52.006 217.991,48.254 220.706,46.831 222.931 C 46.384 223.629,45.535 224.917,44.944 225.793 C 41.073 231.536,40.943 245.895,44.703 252.350 C 50.905 262.999,66.236 266.032,74.700 258.284 C 77.341 255.867,75.084 254.845,71.884 257.010 C 60.636 264.620,45.927 257.170,44.948 243.366 C 44.773 240.909,44.841 239.471,45.160 238.876 L 45.628 238.000 60.914 237.994 C 79.436 237.987,78.237 238.295,78.107 233.579 C 77.897 225.953,74.962 220.879,68.984 217.804 C 65.141 215.828,59.155 215.373,55.348 216.767 M170.667 217.067 C 170.175 217.559,170.394 219.298,171.156 220.956 C 171.572 221.860,172.411 223.950,173.019 225.600 C 173.628 227.250,174.813 230.220,175.653 232.200 C 176.493 234.180,177.704 237.240,178.345 239.000 C 178.985 240.760,180.582 244.810,181.892 248.000 C 187.606 261.909,187.390 260.687,185.216 266.756 C 182.266 274.991,180.006 277.191,174.487 277.198 C 173.329 277.199,172.700 277.396,172.543 277.805 C 171.447 280.660,179.852 279.941,182.685 276.938 C 184.276 275.250,186.505 271.286,187.372 268.600 C 187.728 267.500,188.188 266.240,188.395 265.800 C 188.602 265.360,189.117 264.010,189.538 262.800 C 189.960 261.590,190.863 259.283,191.546 257.674 C 192.229 256.065,193.319 253.275,193.968 251.474 C 195.122 248.274,195.872 246.301,198.408 239.800 C 199.095 238.040,200.162 235.160,200.779 233.400 C 201.808 230.469,204.464 223.687,205.837 220.486 C 206.679 218.523,206.582 216.800,205.629 216.800 C 204.468 216.800,203.310 218.562,202.236 221.962 C 201.705 223.642,200.786 226.093,200.194 227.408 C 199.602 228.724,198.389 231.780,197.500 234.200 C 196.611 236.620,195.475 239.680,194.976 241.000 C 188.231 258.849,188.567 258.329,186.959 253.400 C 186.601 252.300,185.428 249.393,184.354 246.941 C 183.279 244.489,182.400 242.324,182.400 242.131 C 182.400 241.938,181.393 239.355,180.162 236.390 C 178.930 233.426,177.512 229.920,177.011 228.600 C 173.283 218.795,171.741 215.992,170.667 217.067 M66.022 219.378 C 72.506 222.012,77.825 231.412,74.636 234.600 L 73.636 235.600 60.518 235.560 C 43.384 235.508,43.665 235.639,46.445 229.017 C 50.033 220.468,58.475 216.311,66.022 219.378 M116.051 239.862 C 116.447 240.339,116.600 241.820,116.600 245.170 L 116.600 249.816 115.137 252.008 C 108.068 262.601,89.531 262.715,88.214 252.174 C 87.348 245.241,91.946 240.818,101.400 239.489 C 105.200 238.954,115.516 239.217,116.051 239.862 M322.445 259.206 C 326.896 260.045,330.465 262.147,342.133 270.800 C 351.237 277.552,353.923 279.592,356.094 281.400 C 357.415 282.500,359.066 283.784,359.763 284.253 C 360.461 284.722,362.015 285.993,363.216 287.077 C 364.417 288.162,366.930 290.267,368.800 291.756 C 377.052 298.324,387.304 308.905,389.750 313.379 C 392.913 319.164,394.204 331.720,392.200 337.200 C 391.838 338.190,391.388 339.810,391.199 340.800 C 390.508 344.437,386.687 353.975,384.789 356.800 C 384.420 357.350,383.244 359.150,382.176 360.800 C 378.541 366.416,371.211 372.751,365.600 375.127 C 362.008 376.648,357.935 378.028,355.800 378.446 C 354.700 378.662,352.965 379.108,351.944 379.437 C 348.480 380.553,327.928 380.024,323.600 378.707 C 319.083 377.333,315.588 376.084,315.043 375.651 C 314.799 375.457,314.150 375.167,313.600 375.007 C 313.050 374.847,310.980 373.942,309.000 372.996 C 307.020 372.051,303.420 370.443,301.000 369.423 C 298.580 368.403,296.150 367.322,295.600 367.021 C 294.147 366.226,283.731 362.830,281.824 362.530 C 280.931 362.390,279.840 362.050,279.400 361.776 C 278.960 361.501,277.790 361.149,276.800 360.992 C 275.810 360.835,274.656 360.526,274.235 360.305 C 273.815 360.084,272.285 359.639,270.835 359.316 C 269.386 358.993,265.860 358.195,263.000 357.543 C 260.140 356.891,256.810 356.176,255.600 355.955 C 254.390 355.733,252.573 355.285,251.563 354.958 C 250.552 354.632,248.413 354.224,246.809 354.053 C 242.875 353.633,242.366 352.965,243.206 349.326 C 244.021 345.797,247.749 341.613,251.893 339.578 L 254.600 338.249 263.600 338.272 C 270.949 338.292,272.926 338.417,274.378 338.958 C 275.357 339.322,277.742 339.732,279.678 339.870 C 284.256 340.195,284.487 339.442,280.700 336.545 C 279.325 335.494,276.792 333.546,275.071 332.217 C 273.350 330.888,271.136 329.222,270.150 328.516 C 269.165 327.810,267.032 326.190,265.410 324.916 C 257.400 318.626,248.780 311.995,246.000 309.983 C 244.790 309.108,242.702 307.538,241.361 306.496 C 236.738 302.903,231.100 298.597,229.430 297.384 C 227.505 295.985,223.379 292.836,218.200 288.813 C 216.220 287.274,213.661 285.293,212.514 284.409 C 205.487 278.999,204.762 271.161,210.856 266.494 C 214.881 263.411,221.805 264.260,226.200 268.375 C 226.860 268.993,228.226 270.106,229.235 270.849 C 235.530 275.483,242.356 280.669,243.285 281.523 C 243.882 282.073,245.268 283.169,246.364 283.961 C 248.147 285.248,251.132 287.534,258.431 293.200 C 259.706 294.190,262.876 296.720,265.475 298.823 C 268.074 300.926,272.720 304.607,275.800 307.003 C 278.880 309.399,281.972 311.846,282.670 312.441 C 285.371 314.742,288.400 314.172,288.400 311.364 C 288.400 309.318,288.099 308.933,283.564 305.188 C 281.308 303.324,278.819 301.242,278.031 300.559 C 277.244 299.877,275.520 298.527,274.200 297.559 C 271.918 295.886,271.136 295.241,267.483 292.015 C 264.959 289.786,265.745 286.685,269.956 282.270 C 274.867 277.121,277.300 277.262,284.665 283.121 C 288.163 285.904,291.518 288.516,296.000 291.944 C 297.870 293.375,299.878 294.937,300.463 295.416 C 303.154 297.619,306.400 296.967,306.400 294.223 C 306.400 292.279,303.989 289.862,295.603 283.400 C 293.605 281.860,291.111 279.871,290.062 278.980 C 289.012 278.089,287.510 276.962,286.722 276.476 C 282.628 273.945,286.435 268.487,293.651 266.540 L 296.839 265.680 300.120 266.471 C 302.050 266.936,303.812 267.629,304.400 268.153 C 304.950 268.644,306.390 269.802,307.600 270.727 C 308.810 271.652,311.330 273.670,313.200 275.212 C 319.240 280.191,323.277 280.863,323.172 276.871 C 323.114 274.683,323.632 275.186,313.653 267.627 C 308.866 264.002,308.417 263.255,310.100 261.717 C 312.854 259.199,317.448 258.264,322.445 259.206 " stroke="none" fill="#ffffff" fill-rule="evenodd"></path></g></svg>