<svg id="svg" version="1.1" xmlns="http://www.w3.org/2000/svg" xmlns:xlink="http://www.w3.org/1999/xlink" width="400" height="400" viewBox="0, 0, 400,400"><g id="svgg"><path id="path0" d="M127.000 81.438 C 51.300 86.056,-1.140 167.563,21.065 246.092 L 22.052 249.583 20.683 252.692 C -0.346 300.425,53.428 348.936,143.400 363.397 C 157.026 365.587,157.080 365.594,167.400 366.623 C 181.005 367.980,212.613 368.516,224.843 367.598 C 244.235 366.141,252.445 365.098,270.800 361.756 C 297.721 356.854,330.594 344.350,349.400 331.858 C 382.870 309.625,395.286 283.173,385.211 255.564 L 384.013 252.282 385.017 248.441 C 389.584 230.966,389.788 212.565,385.633 192.800 C 382.408 177.459,373.118 158.678,362.186 145.400 C 333.135 110.113,287.430 95.106,242.400 106.071 L 237.400 107.288 233.800 106.593 C 225.948 105.076,223.000 104.787,212.866 104.537 C 201.078 104.247,202.868 104.683,197.200 100.717 C 177.811 87.150,151.558 79.941,127.000 81.438 M205.937 129.228 C 234.841 134.885,256.550 181.064,253.972 231.406 C 253.036 249.677,246.806 273.086,240.406 282.376 C 240.018 282.939,239.363 283.962,238.950 284.650 C 223.733 309.990,197.604 314.150,178.451 294.284 L 176.701 292.469 177.587 289.534 C 178.774 285.600,181.155 279.979,182.031 279.041 C 182.723 278.301,182.815 278.348,185.587 280.879 C 191.237 286.035,198.063 288.800,205.145 288.800 C 225.788 288.800,242.731 262.063,243.799 227.800 C 244.259 213.012,242.492 197.143,239.321 187.600 C 233.503 170.092,225.639 158.219,215.330 151.381 C 194.382 137.486,170.514 155.051,163.638 189.424 C 162.975 192.737,162.346 195.707,162.239 196.024 C 161.817 197.275,161.077 210.193,161.040 216.960 L 161.000 224.121 158.880 224.843 C 151.054 227.508,150.703 226.980,150.747 212.600 C 150.883 168.264,169.302 132.919,194.406 128.817 C 196.053 128.548,197.670 128.280,198.000 128.222 C 198.929 128.057,201.840 128.426,205.937 129.228 M206.400 166.827 C 215.189 169.732,223.292 179.302,227.676 191.953 C 228.323 193.823,229.009 195.643,229.199 195.999 C 229.390 196.354,230.114 199.425,230.810 202.823 C 237.607 236.015,224.232 269.558,204.184 269.597 C 200.792 269.603,193.570 266.876,191.400 264.769 C 190.960 264.341,190.153 263.652,189.606 263.236 C 188.430 262.342,188.608 261.310,190.974 255.285 C 194.166 247.155,194.039 247.282,197.072 249.205 C 209.439 257.047,222.032 242.376,222.141 220.000 C 222.269 193.863,206.313 176.400,192.619 187.688 C 186.992 192.327,183.955 201.024,182.966 215.337 L 182.722 218.873 181.261 219.488 C 179.040 220.421,174.154 221.026,173.463 220.452 C 171.586 218.895,172.814 201.879,175.458 192.800 C 181.174 173.174,193.727 162.637,206.400 166.827 M204.119 204.140 C 213.550 208.081,212.383 232.655,202.800 231.909 C 200.487 231.729,200.600 230.972,204.362 221.475 C 206.835 215.232,205.896 214.163,199.085 215.468 C 194.338 216.378,193.969 216.081,194.942 212.139 C 196.593 205.449,200.046 202.439,204.119 204.140 M204.367 217.138 C 204.800 217.947,203.777 221.413,201.811 225.800 C 201.219 227.120,200.040 230.090,199.191 232.400 C 195.977 241.141,195.572 242.221,195.219 243.000 C 195.019 243.440,194.413 244.880,193.871 246.200 C 193.330 247.520,192.067 250.490,191.066 252.800 C 190.064 255.110,188.762 258.530,188.173 260.400 C 187.583 262.270,186.421 265.420,185.590 267.400 C 184.760 269.380,183.951 271.450,183.792 272.000 C 183.633 272.550,182.910 274.260,182.185 275.800 C 181.461 277.340,180.388 279.836,179.802 281.347 C 176.761 289.190,175.515 291.091,174.157 289.964 C 173.335 289.282,173.621 287.427,175.148 283.531 C 175.780 281.919,176.970 278.800,177.792 276.600 C 179.967 270.778,181.700 266.380,183.782 261.400 C 184.793 258.980,186.261 255.380,187.044 253.400 C 187.826 251.420,189.072 248.270,189.812 246.400 C 190.552 244.530,191.277 242.393,191.422 241.651 C 191.567 240.908,192.015 239.738,192.417 239.051 C 192.820 238.363,193.983 235.554,195.002 232.808 C 196.021 230.063,197.058 227.571,197.307 227.271 C 198.328 226.041,199.614 221.499,199.113 220.895 C 198.558 220.227,195.758 220.455,194.284 221.289 C 193.798 221.564,192.410 222.003,191.200 222.265 C 189.306 222.675,184.539 223.752,175.600 225.790 C 174.390 226.066,172.539 226.586,171.486 226.946 C 170.433 227.306,169.050 227.600,168.412 227.600 C 167.774 227.600,166.782 227.779,166.208 227.997 C 165.634 228.215,163.417 228.750,161.282 229.186 C 159.147 229.621,156.500 230.246,155.400 230.574 C 149.842 232.232,147.446 232.845,143.600 233.594 C 137.921 234.700,136.341 235.107,132.600 236.426 C 130.840 237.047,128.230 237.843,126.800 238.195 C 125.370 238.547,123.484 239.112,122.608 239.451 C 121.732 239.790,119.302 240.321,117.208 240.631 C 112.383 241.346,106.888 242.619,105.371 243.372 C 104.727 243.692,102.088 244.136,99.506 244.359 C 96.925 244.582,94.495 244.934,94.106 245.141 C 92.595 245.945,89.400 245.872,89.400 245.033 C 89.400 244.561,89.784 244.154,90.400 243.972 C 90.950 243.810,92.750 243.286,94.400 242.807 C 96.050 242.329,97.944 241.774,98.610 241.575 C 100.782 240.926,105.764 239.712,107.400 239.433 C 108.280 239.283,109.810 238.921,110.800 238.628 C 111.790 238.335,115.480 237.432,119.000 236.620 C 122.520 235.809,126.390 234.897,127.600 234.592 C 128.810 234.288,131.240 233.747,133.000 233.389 C 134.760 233.032,138.450 232.197,141.200 231.533 C 143.950 230.869,146.920 230.196,147.800 230.038 C 148.680 229.880,150.210 229.464,151.200 229.115 C 155.196 227.705,162.806 225.998,165.086 225.999 C 166.014 226.000,167.364 225.741,168.086 225.425 C 170.112 224.537,178.696 222.101,181.600 221.590 C 188.501 220.374,191.988 219.608,194.600 218.734 C 200.724 216.684,203.851 216.174,204.367 217.138 M198.400 221.967 C 198.400 223.268,196.750 226.057,196.234 225.628 C 195.284 224.840,195.087 223.188,195.843 222.353 C 196.538 221.584,198.400 221.303,198.400 221.967 M130.640 226.346 C 134.246 228.994,134.768 230.800,131.929 230.800 C 130.972 230.800,128.105 231.486,124.200 232.650 C 122.440 233.174,120.730 233.600,120.400 233.596 C 119.765 233.589,112.869 235.199,104.137 237.394 C 98.193 238.888,97.876 238.835,95.211 235.905 C 93.529 234.056,93.637 233.874,97.100 232.720 C 100.906 231.452,113.504 228.390,114.886 228.397 C 115.263 228.398,116.417 228.113,117.450 227.762 C 119.713 226.994,127.066 225.267,128.240 225.228 C 128.702 225.213,129.782 225.716,130.640 226.346 M183.392 225.588 C 183.524 225.801,184.175 227.916,184.838 230.288 C 185.501 232.659,186.929 236.400,188.012 238.600 C 190.191 243.025,190.211 243.406,188.464 247.351 C 187.989 248.424,187.594 249.504,187.587 249.751 C 187.581 249.998,187.132 251.100,186.591 252.200 C 186.050 253.300,185.606 254.397,185.604 254.638 C 185.587 256.579,183.744 256.431,182.638 254.400 C 182.218 253.630,181.207 251.803,180.390 250.339 C 177.151 244.538,172.863 229.384,173.967 227.640 C 174.630 226.592,182.900 224.792,183.392 225.588 M282.000 229.615 C 286.547 230.059,287.554 230.272,294.600 232.286 C 299.820 233.779,309.600 239.591,309.600 241.202 C 309.600 241.406,310.126 242.171,310.768 242.903 C 319.408 252.742,313.924 271.292,299.155 282.190 C 287.488 290.798,267.332 299.418,248.200 303.983 C 246.220 304.455,243.970 305.003,243.200 305.200 C 241.108 305.737,236.458 306.017,236.213 305.622 C 236.096 305.432,237.467 304.416,239.261 303.364 C 257.275 292.803,269.619 267.491,272.404 235.400 C 272.975 228.821,273.050 228.700,276.400 229.059 C 276.950 229.118,279.470 229.368,282.000 229.615 M161.871 230.712 C 162.131 230.877,162.628 232.719,162.977 234.806 C 165.096 247.472,170.153 261.015,175.971 269.596 C 178.385 273.158,178.376 273.033,176.591 277.709 C 173.486 285.840,172.484 287.432,171.422 285.921 C 167.615 280.502,161.280 268.642,159.555 263.704 C 156.979 256.333,154.211 246.184,153.417 241.200 C 153.119 239.330,152.652 236.756,152.378 235.479 C 151.775 232.662,151.769 232.668,155.819 231.427 C 159.102 230.422,161.052 230.191,161.871 230.712 M135.600 237.651 C 135.600 238.253,133.328 242.202,132.697 242.696 C 131.972 243.264,125.714 245.200,124.601 245.200 C 124.079 245.200,123.145 245.393,122.526 245.630 C 121.096 246.176,112.282 248.016,112.078 247.811 C 111.579 247.313,121.333 242.552,129.800 239.160 C 134.899 237.118,135.600 236.935,135.600 237.651 " stroke="none" fill="#ee636b" fill-rule="evenodd"></path><path id="path1" d="M199.200 217.409 C 197.330 217.917,195.260 218.513,194.600 218.734 C 191.988 219.608,188.501 220.374,181.600 221.590 C 178.696 222.101,170.112 224.537,168.086 225.425 C 167.364 225.741,166.014 226.000,165.086 225.999 C 162.806 225.998,155.196 227.705,151.200 229.115 C 150.210 229.464,148.680 229.880,147.800 230.038 C 146.920 230.196,143.950 230.869,141.200 231.533 C 138.450 232.197,134.760 233.032,133.000 233.389 C 131.240 233.747,128.810 234.288,127.600 234.592 C 126.390 234.897,122.520 235.809,119.000 236.620 C 115.480 237.432,111.790 238.335,110.800 238.628 C 109.810 238.921,108.280 239.283,107.400 239.433 C 105.764 239.712,100.782 240.926,98.610 241.575 C 97.944 241.774,96.050 242.329,94.400 242.807 C 92.750 243.286,90.950 243.810,90.400 243.972 C 89.784 244.154,89.400 244.561,89.400 245.033 C 89.400 245.872,92.595 245.945,94.106 245.141 C 94.495 244.934,96.925 244.582,99.506 244.359 C 102.088 244.136,104.727 243.692,105.371 243.372 C 106.888 242.619,112.383 241.346,117.208 240.631 C 119.302 240.321,121.732 239.790,122.608 239.451 C 123.484 239.112,125.370 238.547,126.800 238.195 C 128.230 237.843,130.840 237.047,132.600 236.426 C 136.341 235.107,137.921 234.700,143.600 233.594 C 147.446 232.845,149.842 232.232,155.400 230.574 C 156.500 230.246,159.147 229.621,161.282 229.186 C 163.417 228.750,165.634 228.215,166.208 227.997 C 166.782 227.779,167.774 227.600,168.412 227.600 C 169.050 227.600,170.433 227.306,171.486 226.946 C 172.539 226.586,174.390 226.066,175.600 225.790 C 184.539 223.752,189.306 222.675,191.200 222.265 C 192.410 222.003,193.798 221.564,194.284 221.289 C 195.758 220.455,198.558 220.227,199.113 220.895 C 199.614 221.499,198.328 226.041,197.307 227.271 C 197.058 227.571,196.021 230.063,195.002 232.808 C 193.983 235.554,192.820 238.363,192.417 239.051 C 192.015 239.738,191.567 240.908,191.422 241.651 C 191.277 242.393,190.552 244.530,189.812 246.400 C 189.072 248.270,187.826 251.420,187.044 253.400 C 186.261 255.380,184.793 258.980,183.782 261.400 C 181.700 266.380,179.967 270.778,177.792 276.600 C 176.970 278.800,175.780 281.919,175.148 283.531 C 173.621 287.427,173.335 289.282,174.157 289.964 C 175.515 291.091,176.761 289.190,179.802 281.347 C 180.388 279.836,181.461 277.340,182.185 275.800 C 182.910 274.260,183.633 272.550,183.792 272.000 C 183.951 271.450,184.760 269.380,185.590 267.400 C 186.421 265.420,187.583 262.270,188.173 260.400 C 188.762 258.530,190.064 255.110,191.066 252.800 C 192.067 250.490,193.330 247.520,193.871 246.200 C 194.413 244.880,195.019 243.440,195.219 243.000 C 195.572 242.221,195.977 241.141,199.191 232.400 C 200.040 230.090,201.219 227.120,201.811 225.800 C 203.777 221.413,204.800 217.947,204.367 217.138 C 203.881 216.230,203.463 216.252,199.200 217.409 M274.319 229.101 C 272.980 229.285,272.916 229.494,272.404 235.400 C 269.619 267.491,257.275 292.803,239.261 303.364 C 237.467 304.416,236.096 305.432,236.213 305.622 C 236.458 306.017,241.108 305.737,243.200 305.200 C 243.970 305.003,246.220 304.455,248.200 303.983 C 267.332 299.418,287.488 290.798,299.155 282.190 C 313.924 271.292,319.408 252.742,310.768 242.903 C 310.126 242.171,309.600 241.406,309.600 241.202 C 309.600 239.591,299.820 233.779,294.600 232.286 C 287.554 230.272,286.547 230.059,282.000 229.615 C 279.470 229.368,276.950 229.118,276.400 229.059 C 275.850 229.000,274.914 229.019,274.319 229.101 " stroke="none" fill="#1a0a0a" fill-rule="evenodd"></path><path id="path2" d="M0.000 200.000 L 0.000 400.000 200.000 400.000 L 400.000 400.000 400.000 200.000 L 400.000 0.000 200.000 0.000 L 0.000 0.000 0.000 200.000 M149.600 82.237 C 165.561 84.411,184.284 91.680,197.200 100.717 C 202.868 104.683,201.078 104.247,212.866 104.537 C 223.000 104.787,225.948 105.076,233.800 106.593 L 237.400 107.288 242.400 106.071 C 287.430 95.106,333.135 110.113,362.186 145.400 C 373.118 158.678,382.408 177.459,385.633 192.800 C 389.788 212.565,389.584 230.966,385.017 248.441 L 384.013 252.282 385.211 255.564 C 395.286 283.173,382.870 309.625,349.400 331.858 C 330.594 344.350,297.721 356.854,270.800 361.756 C 252.445 365.098,244.235 366.141,224.843 367.598 C 212.613 368.516,181.005 367.980,167.400 366.623 C 157.080 365.594,157.026 365.587,143.400 363.397 C 53.428 348.936,-0.346 300.425,20.683 252.692 L 22.052 249.583 21.065 246.092 C -3.924 157.714,64.387 70.632,149.600 82.237 M198.000 128.222 C 197.670 128.280,196.053 128.548,194.406 128.817 C 169.302 132.919,150.883 168.264,150.747 212.600 C 150.703 226.980,151.054 227.508,158.880 224.843 L 161.000 224.121 161.040 216.960 C 161.077 210.193,161.817 197.275,162.239 196.024 C 162.346 195.707,162.975 192.737,163.638 189.424 C 170.514 155.051,194.382 137.486,215.330 151.381 C 225.639 158.219,233.503 170.092,239.321 187.600 C 248.293 214.603,244.233 253.078,230.255 273.517 C 218.538 290.648,199.694 293.754,185.587 280.879 C 182.815 278.348,182.723 278.301,182.031 279.041 C 181.155 279.979,178.774 285.600,177.587 289.534 L 176.701 292.469 178.451 294.284 C 197.604 314.150,223.733 309.990,238.950 284.650 C 239.363 283.962,240.018 282.939,240.406 282.376 C 243.405 278.023,249.216 262.361,250.935 254.000 C 261.751 201.397,244.397 146.188,212.337 131.204 C 209.109 129.695,200.173 127.836,198.000 128.222 M197.577 166.361 C 187.535 168.585,179.828 177.797,175.458 192.800 C 172.814 201.879,171.586 218.895,173.463 220.452 C 174.154 221.026,179.040 220.421,181.261 219.488 L 182.722 218.873 182.966 215.337 C 183.955 201.024,186.992 192.327,192.619 187.688 C 206.313 176.400,222.269 193.863,222.141 220.000 C 222.032 242.376,209.439 257.047,197.072 249.205 C 194.039 247.282,194.166 247.155,190.974 255.285 C 188.608 261.310,188.430 262.342,189.606 263.236 C 190.153 263.652,190.960 264.341,191.400 264.769 C 193.570 266.876,200.792 269.603,204.184 269.597 C 224.232 269.558,237.607 236.015,230.810 202.823 C 230.114 199.425,229.390 196.354,229.199 195.999 C 229.009 195.643,228.323 193.823,227.676 191.953 C 221.607 174.440,209.104 163.809,197.577 166.361 M199.136 204.755 C 197.051 206.077,195.967 207.986,194.942 212.139 C 193.969 216.081,194.338 216.378,199.085 215.468 C 205.896 214.163,206.835 215.232,204.362 221.475 C 200.600 230.972,200.487 231.729,202.800 231.909 C 208.399 232.345,212.380 222.222,210.149 213.226 C 208.212 205.420,203.636 201.901,199.136 204.755 M195.843 222.353 C 195.087 223.188,195.284 224.840,196.234 225.628 C 196.750 226.057,198.400 223.268,198.400 221.967 C 198.400 221.303,196.538 221.584,195.843 222.353 M123.364 226.190 C 121.144 226.704,118.483 227.412,117.450 227.762 C 116.417 228.113,115.263 228.398,114.886 228.397 C 113.504 228.390,100.906 231.452,97.100 232.720 C 93.637 233.874,93.529 234.056,95.211 235.905 C 97.876 238.835,98.193 238.888,104.137 237.394 C 112.869 235.199,119.765 233.589,120.400 233.596 C 120.730 233.600,122.440 233.174,124.200 232.650 C 128.105 231.486,130.972 230.800,131.929 230.800 C 134.768 230.800,134.246 228.994,130.640 226.346 C 128.792 224.988,128.575 224.984,123.364 226.190 M177.861 226.177 C 172.922 227.436,173.057 227.028,174.968 234.938 C 176.602 241.699,178.370 246.721,180.390 250.339 C 181.207 251.803,182.218 253.630,182.638 254.400 C 183.744 256.431,185.587 256.579,185.604 254.638 C 185.606 254.397,186.050 253.300,186.591 252.200 C 187.132 251.100,187.581 249.998,187.587 249.751 C 187.594 249.504,187.989 248.424,188.464 247.351 C 190.211 243.406,190.191 243.025,188.012 238.600 C 186.929 236.400,185.501 232.659,184.838 230.288 C 183.175 224.341,183.747 224.678,177.861 226.177 M155.819 231.427 C 151.769 232.668,151.775 232.662,152.378 235.479 C 152.652 236.756,153.119 239.330,153.417 241.200 C 154.211 246.184,156.979 256.333,159.555 263.704 C 161.280 268.642,167.615 280.502,171.422 285.921 C 172.484 287.432,173.486 285.840,176.591 277.709 C 178.376 273.033,178.385 273.158,175.971 269.596 C 170.153 261.015,165.096 247.472,162.977 234.806 C 162.142 229.812,161.729 229.617,155.819 231.427 M129.800 239.160 C 121.333 242.552,111.579 247.313,112.078 247.811 C 112.282 248.016,121.096 246.176,122.526 245.630 C 123.145 245.393,124.079 245.200,124.601 245.200 C 125.714 245.200,131.972 243.264,132.697 242.696 C 133.328 242.202,135.600 238.253,135.600 237.651 C 135.600 236.935,134.899 237.118,129.800 239.160 " stroke="none" fill="#ffffff" fill-rule="evenodd"></path></g></svg>